<svg xmlns="http://www.w3.org/2000/svg" xmlns:xlink="http://www.w3.org/1999/xlink" width="550" zoomAndPan="magnify" viewBox="28 391 550 78" height="78" preserveAspectRatio="xMidYMid meet" version="1.0"><defs><g/><clipPath id="84689fb015"><path d="M 0.585938 0.886719 L 539.863281 0.886719 L 539.863281 68.746094 L 0.585938 68.746094 Z M 0.585938 0.886719 " clip-rule="nonzero"/></clipPath><clipPath id="3bea1f753b"><path d="M 79 52 L 456 52 L 456 68.746094 L 79 68.746094 Z M 79 52 " clip-rule="nonzero"/></clipPath><clipPath id="6b751f37c5"><rect x="0" width="377" y="0" height="17"/></clipPath><clipPath id="d8edee4ab1"><rect x="0" width="540" y="0" height="69"/></clipPath><clipPath id="d760c2c5c7"><rect x="0" width="540" y="0" height="69"/></clipPath></defs><g transform="matrix(1, 0, 0, 1, 33, 395)"><g clip-path="url(#d760c2c5c7)"><g clip-path="url(#84689fb015)"><g transform="matrix(1, 0, 0, 1, 0.000000000000007105, 0)"><g clip-path="url(#d8edee4ab1)"><g fill="#a6e7ff" fill-opacity="1"><g transform="translate(1.227936, 37.420258)"><g><path d="M 1.6875 0 L 1.6875 -0.828125 L 4.828125 -0.828125 L 4.828125 -31.125 L 1.6875 -31.125 L 1.6875 -31.90625 L 12.265625 -31.90625 L 12.265625 -31.125 L 9.15625 -31.125 L 9.15625 -0.828125 L 22.796875 -0.828125 C 25.003906 -0.828125 26.109375 -1.875 26.109375 -3.96875 L 26.109375 -7.703125 L 26.890625 -7.703125 L 26.890625 0 Z M 1.6875 0 "/></g></g></g><g fill="#a6e7ff" fill-opacity="1"><g transform="translate(41.884977, 37.420258)"><g><path d="M 0 0 L 0 -0.828125 L 3.421875 -0.828125 L 14.8125 -31.90625 L 19.140625 -31.90625 L 30.53125 -0.828125 L 34 -0.828125 L 34 0 L 22.828125 0 L 22.828125 -0.828125 L 25.9375 -0.828125 L 21.515625 -12.90625 L 8.703125 -12.90625 L 4.28125 -0.828125 L 7.703125 -0.828125 L 7.703125 0 Z M 8.984375 -13.671875 L 21.234375 -13.671875 L 15.09375 -30.359375 Z M 8.984375 -13.671875 "/></g></g></g><g fill="#a6e7ff" fill-opacity="1"><g transform="translate(87.601141, 37.420258)"><g><path d="M 1.6875 0 L 1.6875 -0.828125 L 4.828125 -0.828125 L 4.828125 -31.125 L 2.09375 -31.125 L 2.09375 -31.90625 L 17.046875 -31.90625 C 20.328125 -31.90625 22.976562 -31.046875 25 -29.328125 C 27.019531 -27.609375 28.03125 -24.894531 28.03125 -21.1875 C 28.03125 -18.820312 27.566406 -16.882812 26.640625 -15.375 C 25.710938 -13.875 24.421875 -12.757812 22.765625 -12.03125 C 21.109375 -11.300781 19.203125 -10.9375 17.046875 -10.9375 L 9.15625 -10.9375 L 9.15625 -0.828125 L 12.265625 -0.828125 L 12.265625 0 Z M 9.15625 -11.71875 L 14.578125 -11.71875 C 17.441406 -11.71875 19.675781 -12.4375 21.28125 -13.875 C 22.894531 -15.320312 23.703125 -17.367188 23.703125 -20.015625 L 23.703125 -22.421875 C 23.703125 -25.160156 22.894531 -27.296875 21.28125 -28.828125 C 19.675781 -30.359375 17.441406 -31.125 14.578125 -31.125 L 9.15625 -31.125 Z M 9.15625 -11.71875 "/></g></g></g><g fill="#a6e7ff" fill-opacity="1"><g transform="translate(128.394917, 37.420258)"><g><path d="M 1.6875 0 L 1.6875 -0.828125 L 4.828125 -0.828125 L 4.828125 -31.125 L 1.6875 -31.125 L 1.6875 -31.90625 L 12.265625 -31.90625 L 12.265625 -31.125 L 9.15625 -31.125 L 9.15625 -0.828125 L 22.796875 -0.828125 C 25.003906 -0.828125 26.109375 -1.875 26.109375 -3.96875 L 26.109375 -7.703125 L 26.890625 -7.703125 L 26.890625 0 Z M 1.6875 0 "/></g></g></g><g fill="#a6e7ff" fill-opacity="1"><g transform="translate(169.05195, 37.420258)"><g><path d="M 0 0 L 0 -0.828125 L 3.421875 -0.828125 L 14.8125 -31.90625 L 19.140625 -31.90625 L 30.53125 -0.828125 L 34 -0.828125 L 34 0 L 22.828125 0 L 22.828125 -0.828125 L 25.9375 -0.828125 L 21.515625 -12.90625 L 8.703125 -12.90625 L 4.28125 -0.828125 L 7.703125 -0.828125 L 7.703125 0 Z M 8.984375 -13.671875 L 21.234375 -13.671875 L 15.09375 -30.359375 Z M 8.984375 -13.671875 "/></g></g></g><g fill="#a6e7ff" fill-opacity="1"><g transform="translate(214.768114, 37.420258)"><g><path d="M 1.6875 0 L 1.6875 -0.828125 L 4.828125 -0.828125 L 4.828125 -31.125 L 1.6875 -31.125 L 1.6875 -31.90625 L 7.9375 -31.90625 L 26.390625 -6.5625 L 26.390625 -31.125 L 23.25 -31.125 L 23.25 -31.90625 L 30.3125 -31.90625 L 30.3125 -31.125 L 27.171875 -31.125 L 27.171875 0 L 26.390625 0 L 5.609375 -27.84375 L 5.609375 -0.828125 L 8.75 -0.828125 L 8.75 0 Z M 1.6875 0 "/></g></g></g><g fill="#a6e7ff" fill-opacity="1"><g transform="translate(258.114251, 37.420258)"><g><path d="M 1.953125 0 L 1.953125 -0.828125 L 4.828125 -0.828125 L 4.828125 -31.125 L 1.6875 -31.125 L 1.6875 -31.90625 L 17.59375 -31.90625 C 22.425781 -31.90625 26.109375 -30.53125 28.640625 -27.78125 C 31.179688 -25.03125 32.453125 -21.085938 32.453125 -15.953125 C 32.453125 -10.847656 31.175781 -6.910156 28.625 -4.140625 C 26.070312 -1.378906 22.394531 0 17.59375 0 Z M 9.15625 -0.828125 L 17.59375 -0.828125 C 20.90625 -0.828125 23.488281 -1.859375 25.34375 -3.921875 C 27.195312 -5.984375 28.125 -9.128906 28.125 -13.359375 L 28.125 -18.546875 C 28.125 -22.710938 27.203125 -25.847656 25.359375 -27.953125 C 23.523438 -30.066406 20.9375 -31.125 17.59375 -31.125 L 9.15625 -31.125 Z M 9.15625 -0.828125 "/></g></g></g><g fill="#ffffff" fill-opacity="1"><g transform="translate(304.427814, 37.420258)"><g/></g></g><g fill="#c5a56d" fill-opacity="1"><g transform="translate(327.221468, 37.420258)"><g><path d="M 16.09375 0.453125 C 12.445312 0.453125 9.597656 -0.570312 7.546875 -2.625 C 5.492188 -4.675781 4.46875 -7.476562 4.46875 -11.03125 L 4.46875 -31.125 L 1.328125 -31.125 L 1.328125 -31.90625 L 11.890625 -31.90625 L 11.890625 -31.125 L 8.796875 -31.125 L 8.796875 -9.984375 C 8.796875 -7.128906 9.613281 -4.8125 11.25 -3.03125 C 12.894531 -1.25 15.238281 -0.359375 18.28125 -0.359375 C 21.375 -0.359375 23.769531 -1.222656 25.46875 -2.953125 C 27.175781 -4.691406 28.03125 -7.050781 28.03125 -10.03125 L 28.03125 -31.125 L 24.890625 -31.125 L 24.890625 -31.90625 L 31.953125 -31.90625 L 31.953125 -31.125 L 28.84375 -31.125 L 28.84375 -10.03125 C 28.84375 -6.894531 27.925781 -4.363281 26.09375 -2.4375 C 24.257812 -0.507812 21.65625 0.453125 18.28125 0.453125 Z M 16.09375 0.453125 "/></g></g></g><g fill="#c5a56d" fill-opacity="1"><g transform="translate(372.208391, 37.420258)"><g><path d="M 1.6875 0 L 1.6875 -0.828125 L 4.828125 -0.828125 L 4.828125 -31.125 L 1.6875 -31.125 L 1.6875 -31.90625 L 12.265625 -31.90625 L 12.265625 -31.125 L 9.15625 -31.125 L 9.15625 -0.828125 L 22.796875 -0.828125 C 25.003906 -0.828125 26.109375 -1.875 26.109375 -3.96875 L 26.109375 -7.703125 L 26.890625 -7.703125 L 26.890625 0 Z M 1.6875 0 "/></g></g></g><g fill="#c5a56d" fill-opacity="1"><g transform="translate(412.865433, 37.420258)"><g><path d="M 1.328125 -24.203125 L 1.328125 -31.90625 L 24.296875 -31.90625 L 24.296875 -24.203125 L 23.46875 -24.203125 L 23.46875 -27.9375 C 23.46875 -30.0625 22.359375 -31.125 20.140625 -31.125 L 14.953125 -31.125 L 14.953125 -0.828125 L 18.09375 -0.828125 L 18.09375 0 L 7.515625 0 L 7.515625 -0.828125 L 10.625 -0.828125 L 10.625 -31.125 L 5.421875 -31.125 C 3.203125 -31.125 2.09375 -30.0625 2.09375 -27.9375 L 2.09375 -24.203125 Z M 1.328125 -24.203125 "/></g></g></g><g fill="#c5a56d" fill-opacity="1"><g transform="translate(450.14972, 37.420258)"><g><path d="M 1.6875 0 L 1.6875 -0.828125 L 4.828125 -0.828125 L 4.828125 -31.125 L 1.953125 -31.125 L 1.953125 -31.90625 L 18.734375 -31.90625 C 21.523438 -31.90625 23.769531 -31.164062 25.46875 -29.6875 C 27.175781 -28.21875 28.03125 -25.859375 28.03125 -22.609375 C 28.03125 -20.054688 27.429688 -18.078125 26.234375 -16.671875 C 25.035156 -15.273438 23.445312 -14.367188 21.46875 -13.953125 C 23.59375 -13.367188 25.21875 -12.347656 26.34375 -10.890625 C 27.46875 -9.429688 28.03125 -7.703125 28.03125 -5.703125 L 28.03125 -3.046875 C 28.03125 -2.566406 28.144531 -2.164062 28.375 -1.84375 C 28.601562 -1.53125 28.957031 -1.375 29.4375 -1.375 C 29.832031 -1.375 30.148438 -1.460938 30.390625 -1.640625 C 30.640625 -1.828125 30.882812 -2.113281 31.125 -2.5 L 31.8125 -2.09375 C 31.289062 -1.269531 30.726562 -0.640625 30.125 -0.203125 C 29.519531 0.234375 28.71875 0.453125 27.71875 0.453125 C 26.40625 0.453125 25.40625 0.0976562 24.71875 -0.609375 C 24.039062 -1.328125 23.703125 -2.296875 23.703125 -3.515625 L 23.703125 -6.65625 C 23.703125 -8.6875 23.023438 -10.363281 21.671875 -11.6875 C 20.316406 -13.007812 18.347656 -13.671875 15.765625 -13.671875 L 9.15625 -13.671875 L 9.15625 -0.828125 L 12.265625 -0.828125 L 12.265625 0 Z M 9.15625 -14.5 L 16.09375 -14.5 C 18.457031 -14.5 20.316406 -15.117188 21.671875 -16.359375 C 23.023438 -17.609375 23.703125 -19.375 23.703125 -21.65625 L 23.703125 -23.609375 C 23.703125 -25.953125 23.023438 -27.789062 21.671875 -29.125 C 20.316406 -30.457031 18.457031 -31.125 16.09375 -31.125 L 9.15625 -31.125 Z M 9.15625 -14.5 "/></g></g></g><g fill="#c5a56d" fill-opacity="1"><g transform="translate(493.769306, 37.420258)"><g><path d="M 0 0 L 0 -0.828125 L 3.421875 -0.828125 L 14.8125 -31.90625 L 19.140625 -31.90625 L 30.53125 -0.828125 L 34 -0.828125 L 34 0 L 22.828125 0 L 22.828125 -0.828125 L 25.9375 -0.828125 L 21.515625 -12.90625 L 8.703125 -12.90625 L 4.28125 -0.828125 L 7.703125 -0.828125 L 7.703125 0 Z M 8.984375 -13.671875 L 21.234375 -13.671875 L 15.09375 -30.359375 Z M 8.984375 -13.671875 "/></g></g></g><g clip-path="url(#3bea1f753b)"><g transform="matrix(1, 0, 0, 1, 79, 52)"><g clip-path="url(#6b751f37c5)"><g fill="#ffffff" fill-opacity="1"><g transform="translate(0.720874, 12.765514)"><g><path d="M 0.578125 0 L 0.578125 -0.28125 L 1.546875 -0.28125 L 1.546875 -10.71875 L 0.578125 -10.71875 L 0.578125 -11 L 6.734375 -11 C 7.578125 -11 8.25 -10.789062 8.75 -10.375 C 9.257812 -9.96875 9.515625 -9.328125 9.515625 -8.453125 C 9.515625 -7.828125 9.375 -7.328125 9.09375 -6.953125 C 8.8125 -6.578125 8.425781 -6.316406 7.9375 -6.171875 C 8.675781 -6.015625 9.242188 -5.679688 9.640625 -5.171875 C 10.046875 -4.671875 10.25 -3.992188 10.25 -3.140625 C 10.25 -2.097656 9.941406 -1.3125 9.328125 -0.78125 C 8.722656 -0.257812 7.882812 0 6.8125 0 Z M 3.046875 -0.28125 L 6.09375 -0.28125 C 6.96875 -0.28125 7.628906 -0.515625 8.078125 -0.984375 C 8.535156 -1.460938 8.765625 -2.082031 8.765625 -2.84375 L 8.765625 -3.4375 C 8.765625 -4.195312 8.535156 -4.816406 8.078125 -5.296875 C 7.628906 -5.773438 6.96875 -6.015625 6.09375 -6.015625 L 3.046875 -6.015625 Z M 3.046875 -6.28125 L 5.90625 -6.28125 C 6.570312 -6.28125 7.09375 -6.453125 7.46875 -6.796875 C 7.84375 -7.140625 8.03125 -7.617188 8.03125 -8.234375 L 8.03125 -8.65625 C 8.03125 -9.300781 7.84375 -9.804688 7.46875 -10.171875 C 7.09375 -10.535156 6.570312 -10.71875 5.90625 -10.71875 L 3.046875 -10.71875 Z M 3.046875 -6.28125 "/></g></g></g><g fill="#ffffff" fill-opacity="1"><g transform="translate(17.861826, 12.765514)"><g><path d="M 4.46875 0.15625 C 3.28125 0.15625 2.363281 -0.195312 1.71875 -0.90625 C 1.070312 -1.613281 0.75 -2.613281 0.75 -3.90625 C 0.75 -5.195312 1.050781 -6.203125 1.65625 -6.921875 C 2.269531 -7.648438 3.160156 -8.015625 4.328125 -8.015625 L 4.421875 -8.015625 C 5.492188 -8.015625 6.316406 -7.757812 6.890625 -7.25 C 7.460938 -6.75 7.75 -6.117188 7.75 -5.359375 C 7.75 -5.078125 7.664062 -4.851562 7.5 -4.6875 C 7.332031 -4.519531 7.097656 -4.4375 6.796875 -4.4375 L 2.125 -4.4375 L 2.125 -3.296875 C 2.125 -2.347656 2.363281 -1.582031 2.84375 -1 C 3.320312 -0.414062 3.96875 -0.125 4.78125 -0.125 C 5.394531 -0.125 5.90625 -0.242188 6.3125 -0.484375 C 6.71875 -0.722656 7.082031 -1.085938 7.40625 -1.578125 L 7.640625 -1.4375 C 7.304688 -0.925781 6.910156 -0.53125 6.453125 -0.25 C 5.992188 0.0195312 5.441406 0.15625 4.796875 0.15625 Z M 2.125 -4.734375 L 6.109375 -4.734375 C 6.285156 -4.734375 6.375 -4.828125 6.375 -5.015625 L 6.375 -5.5625 C 6.382812 -6.175781 6.21875 -6.691406 5.875 -7.109375 C 5.53125 -7.523438 5.015625 -7.734375 4.328125 -7.734375 C 3.585938 -7.734375 3.035156 -7.460938 2.671875 -6.921875 C 2.304688 -6.390625 2.125 -5.691406 2.125 -4.828125 Z M 2.125 -4.734375 "/></g></g></g><g fill="#ffffff" fill-opacity="1"><g transform="translate(32.711313, 12.765514)"><g><path d="M 3.828125 0.15625 C 2.816406 0.15625 2.039062 -0.03125 1.5 -0.40625 C 0.957031 -0.789062 0.6875 -1.363281 0.6875 -2.125 C 0.6875 -2.332031 0.742188 -2.5 0.859375 -2.625 C 0.972656 -2.75 1.128906 -2.8125 1.328125 -2.8125 C 1.554688 -2.8125 1.734375 -2.742188 1.859375 -2.609375 C 1.992188 -2.484375 2.0625 -2.289062 2.0625 -2.03125 L 2.0625 -1.703125 C 2.0625 -1.265625 2.101562 -0.929688 2.1875 -0.703125 C 2.28125 -0.484375 2.453125 -0.332031 2.703125 -0.25 C 2.960938 -0.164062 3.335938 -0.125 3.828125 -0.125 C 4.441406 -0.125 4.894531 -0.285156 5.1875 -0.609375 C 5.476562 -0.941406 5.625 -1.328125 5.625 -1.765625 C 5.625 -2.128906 5.507812 -2.4375 5.28125 -2.6875 C 5.050781 -2.9375 4.71875 -3.15625 4.28125 -3.34375 L 2.671875 -4.09375 C 2.035156 -4.375 1.597656 -4.671875 1.359375 -4.984375 C 1.117188 -5.296875 1 -5.679688 1 -6.140625 C 1 -6.640625 1.21875 -7.078125 1.65625 -7.453125 C 2.101562 -7.828125 2.785156 -8.015625 3.703125 -8.015625 L 3.984375 -8.015625 C 4.828125 -8.015625 5.488281 -7.84375 5.96875 -7.5 C 6.457031 -7.164062 6.703125 -6.71875 6.703125 -6.15625 C 6.703125 -5.78125 6.484375 -5.59375 6.046875 -5.59375 C 5.859375 -5.59375 5.707031 -5.640625 5.59375 -5.734375 C 5.476562 -5.835938 5.421875 -5.988281 5.421875 -6.1875 L 5.421875 -6.515625 C 5.421875 -6.835938 5.382812 -7.082031 5.3125 -7.25 C 5.25 -7.425781 5.113281 -7.550781 4.90625 -7.625 C 4.707031 -7.695312 4.40625 -7.734375 4 -7.734375 C 3.457031 -7.734375 3.050781 -7.601562 2.78125 -7.34375 C 2.507812 -7.09375 2.375 -6.800781 2.375 -6.46875 C 2.375 -6.113281 2.472656 -5.820312 2.671875 -5.59375 C 2.878906 -5.375 3.222656 -5.15625 3.703125 -4.9375 L 5.359375 -4.15625 C 5.878906 -3.925781 6.28125 -3.648438 6.5625 -3.328125 C 6.84375 -3.003906 6.984375 -2.601562 6.984375 -2.125 C 6.984375 -1.707031 6.882812 -1.328125 6.6875 -0.984375 C 6.488281 -0.640625 6.175781 -0.363281 5.75 -0.15625 C 5.332031 0.0507812 4.789062 0.15625 4.125 0.15625 Z M 3.828125 0.15625 "/></g></g></g><g fill="#ffffff" fill-opacity="1"><g transform="translate(46.807433, 12.765514)"><g><path d="M 5.515625 0.15625 C 4.910156 0.15625 4.378906 -0.0195312 3.921875 -0.375 C 3.472656 -0.726562 3.132812 -1.25 2.90625 -1.9375 L 2.90625 2.875 L 3.984375 2.875 L 3.984375 3.140625 L 0.453125 3.140625 L 0.453125 2.875 L 1.53125 2.875 L 1.53125 -7.578125 L 0.453125 -7.578125 L 0.453125 -7.859375 L 2.90625 -7.859375 L 2.90625 -5.90625 C 3.132812 -6.59375 3.472656 -7.113281 3.921875 -7.46875 C 4.378906 -7.832031 4.910156 -8.015625 5.515625 -8.015625 L 5.828125 -8.015625 C 6.785156 -8.015625 7.515625 -7.648438 8.015625 -6.921875 C 8.515625 -6.191406 8.765625 -5.191406 8.765625 -3.921875 C 8.765625 -2.660156 8.515625 -1.664062 8.015625 -0.9375 C 7.515625 -0.207031 6.78125 0.15625 5.8125 0.15625 Z M 2.90625 -3.40625 C 2.976562 -2.300781 3.253906 -1.476562 3.734375 -0.9375 C 4.222656 -0.394531 4.816406 -0.125 5.515625 -0.125 C 6.097656 -0.125 6.554688 -0.34375 6.890625 -0.78125 C 7.222656 -1.226562 7.390625 -1.84375 7.390625 -2.625 L 7.390625 -5.234375 C 7.390625 -6.015625 7.222656 -6.625 6.890625 -7.0625 C 6.566406 -7.507812 6.113281 -7.734375 5.53125 -7.734375 C 4.820312 -7.734375 4.222656 -7.460938 3.734375 -6.921875 C 3.253906 -6.390625 2.976562 -5.5625 2.90625 -4.4375 Z M 2.90625 -3.40625 "/></g></g></g><g fill="#ffffff" fill-opacity="1"><g transform="translate(62.677095, 12.765514)"><g><path d="M 4.59375 0.15625 C 3.382812 0.15625 2.441406 -0.207031 1.765625 -0.9375 C 1.085938 -1.675781 0.75 -2.671875 0.75 -3.921875 C 0.75 -4.765625 0.90625 -5.488281 1.21875 -6.09375 C 1.539062 -6.707031 1.988281 -7.179688 2.5625 -7.515625 C 3.132812 -7.847656 3.8125 -8.015625 4.59375 -8.015625 C 5.800781 -8.015625 6.742188 -7.648438 7.421875 -6.921875 C 8.109375 -6.191406 8.453125 -5.191406 8.453125 -3.921875 C 8.453125 -2.660156 8.113281 -1.664062 7.4375 -0.9375 C 6.757812 -0.207031 5.8125 0.15625 4.59375 0.15625 Z M 2.125 -3.15625 C 2.125 -2.21875 2.34375 -1.476562 2.78125 -0.9375 C 3.226562 -0.394531 3.832031 -0.125 4.59375 -0.125 C 5.375 -0.125 5.976562 -0.390625 6.40625 -0.921875 C 6.84375 -1.460938 7.0625 -2.207031 7.0625 -3.15625 L 7.0625 -4.6875 C 7.0625 -5.65625 6.84375 -6.40625 6.40625 -6.9375 C 5.976562 -7.46875 5.375 -7.734375 4.59375 -7.734375 C 3.832031 -7.734375 3.226562 -7.460938 2.78125 -6.921875 C 2.34375 -6.390625 2.125 -5.644531 2.125 -4.6875 Z M 2.125 -3.15625 "/></g></g></g><g fill="#ffffff" fill-opacity="1"><g transform="translate(78.217153, 12.765514)"><g><path d="M 0.453125 -0.015625 L 0.453125 -0.28125 L 1.53125 -0.28125 L 1.53125 -10.71875 L 0.453125 -10.71875 L 0.453125 -11.015625 L 2.90625 -11.015625 L 2.90625 -3.234375 L 7.25 -7.578125 L 5.921875 -7.578125 L 5.921875 -7.875 L 9.15625 -7.875 L 9.15625 -7.578125 L 7.625 -7.578125 L 5.28125 -5.234375 L 8.265625 -0.28125 L 9.171875 -0.28125 L 9.171875 -0.015625 L 6.875 -0.015625 L 4.25 -4.203125 L 2.90625 -2.859375 L 2.90625 -0.28125 L 3.984375 -0.28125 L 3.984375 -0.015625 Z M 0.453125 -0.015625 "/></g></g></g><g fill="#ffffff" fill-opacity="1"><g transform="translate(93.741518, 12.765514)"><g><path d="M 4.46875 0.15625 C 3.28125 0.15625 2.363281 -0.195312 1.71875 -0.90625 C 1.070312 -1.613281 0.75 -2.613281 0.75 -3.90625 C 0.75 -5.195312 1.050781 -6.203125 1.65625 -6.921875 C 2.269531 -7.648438 3.160156 -8.015625 4.328125 -8.015625 L 4.421875 -8.015625 C 5.492188 -8.015625 6.316406 -7.757812 6.890625 -7.25 C 7.460938 -6.75 7.75 -6.117188 7.75 -5.359375 C 7.75 -5.078125 7.664062 -4.851562 7.5 -4.6875 C 7.332031 -4.519531 7.097656 -4.4375 6.796875 -4.4375 L 2.125 -4.4375 L 2.125 -3.296875 C 2.125 -2.347656 2.363281 -1.582031 2.84375 -1 C 3.320312 -0.414062 3.96875 -0.125 4.78125 -0.125 C 5.394531 -0.125 5.90625 -0.242188 6.3125 -0.484375 C 6.71875 -0.722656 7.082031 -1.085938 7.40625 -1.578125 L 7.640625 -1.4375 C 7.304688 -0.925781 6.910156 -0.53125 6.453125 -0.25 C 5.992188 0.0195312 5.441406 0.15625 4.796875 0.15625 Z M 2.125 -4.734375 L 6.109375 -4.734375 C 6.285156 -4.734375 6.375 -4.828125 6.375 -5.015625 L 6.375 -5.5625 C 6.382812 -6.175781 6.21875 -6.691406 5.875 -7.109375 C 5.53125 -7.523438 5.015625 -7.734375 4.328125 -7.734375 C 3.585938 -7.734375 3.035156 -7.460938 2.671875 -6.921875 C 2.304688 -6.390625 2.125 -5.691406 2.125 -4.828125 Z M 2.125 -4.734375 "/></g></g></g><g fill="#ffffff" fill-opacity="1"><g transform="translate(108.591005, 12.765514)"><g/></g></g><g fill="#ffffff" fill-opacity="1"><g transform="translate(118.763369, 12.765514)"><g><path d="M 0 0 L 0 -0.28125 L 1.171875 -0.28125 L 5.109375 -11 L 6.59375 -11 L 10.515625 -0.28125 L 11.71875 -0.28125 L 11.71875 0 L 7.875 0 L 7.875 -0.28125 L 8.9375 -0.28125 L 7.40625 -4.4375 L 3 -4.4375 L 1.46875 -0.28125 L 2.65625 -0.28125 L 2.65625 0 Z M 3.09375 -4.71875 L 7.3125 -4.71875 L 5.203125 -10.453125 Z M 3.09375 -4.71875 "/></g></g></g><g fill="#ffffff" fill-opacity="1"><g transform="translate(136.830336, 12.765514)"><g><path d="M 0.578125 0 L 0.578125 -0.28125 L 1.671875 -0.28125 L 1.671875 -7.578125 L 0.578125 -7.578125 L 0.578125 -7.859375 L 3.046875 -7.859375 L 3.046875 -6.453125 C 3.222656 -6.941406 3.472656 -7.320312 3.796875 -7.59375 C 4.117188 -7.875 4.507812 -8.015625 4.96875 -8.015625 L 5.375 -8.015625 C 6.0625 -8.015625 6.597656 -7.820312 6.984375 -7.4375 C 7.367188 -7.050781 7.5625 -6.539062 7.5625 -5.90625 C 7.5625 -5.457031 7.335938 -5.234375 6.890625 -5.234375 C 6.429688 -5.234375 6.203125 -5.457031 6.203125 -5.90625 L 6.203125 -6.390625 C 6.203125 -6.910156 6.117188 -7.265625 5.953125 -7.453125 C 5.785156 -7.640625 5.457031 -7.734375 4.96875 -7.734375 C 4.414062 -7.734375 3.96875 -7.488281 3.625 -7 C 3.289062 -6.519531 3.097656 -5.835938 3.046875 -4.953125 L 3.046875 -0.28125 L 4.125 -0.28125 L 4.125 0 Z M 0.578125 0 "/></g></g></g><g fill="#ffffff" fill-opacity="1"><g transform="translate(151.020627, 12.765514)"><g><path d="M 4.40625 0.15625 C 3.25 0.15625 2.347656 -0.195312 1.703125 -0.90625 C 1.066406 -1.613281 0.75 -2.613281 0.75 -3.90625 C 0.75 -4.726562 0.878906 -5.445312 1.140625 -6.0625 C 1.410156 -6.675781 1.816406 -7.15625 2.359375 -7.5 C 2.898438 -7.84375 3.570312 -8.015625 4.375 -8.015625 L 4.546875 -8.015625 C 5.535156 -8.015625 6.296875 -7.769531 6.828125 -7.28125 C 7.359375 -6.800781 7.625 -6.171875 7.625 -5.390625 C 7.625 -5.203125 7.566406 -5.039062 7.453125 -4.90625 C 7.335938 -4.78125 7.164062 -4.71875 6.9375 -4.71875 C 6.675781 -4.71875 6.484375 -4.785156 6.359375 -4.921875 C 6.234375 -5.066406 6.171875 -5.257812 6.171875 -5.5 L 6.171875 -5.90625 C 6.171875 -6.394531 6.125 -6.769531 6.03125 -7.03125 C 5.9375 -7.300781 5.757812 -7.484375 5.5 -7.578125 C 5.25 -7.679688 4.875 -7.734375 4.375 -7.734375 C 3.675781 -7.734375 3.125 -7.460938 2.71875 -6.921875 C 2.320312 -6.390625 2.125 -5.691406 2.125 -4.828125 L 2.125 -3.234375 C 2.125 -2.316406 2.351562 -1.566406 2.8125 -0.984375 C 3.269531 -0.410156 3.894531 -0.125 4.6875 -0.125 C 5.3125 -0.125 5.828125 -0.253906 6.234375 -0.515625 C 6.640625 -0.773438 6.988281 -1.140625 7.28125 -1.609375 L 7.515625 -1.453125 C 7.191406 -0.941406 6.800781 -0.546875 6.34375 -0.265625 C 5.894531 0.015625 5.34375 0.15625 4.6875 0.15625 Z M 4.40625 0.15625 "/></g></g></g><g fill="#ffffff" fill-opacity="1"><g transform="translate(165.760238, 12.765514)"><g><path d="M 3.640625 0.15625 C 2.984375 0.15625 2.445312 -0.0546875 2.03125 -0.484375 C 1.625 -0.921875 1.421875 -1.539062 1.421875 -2.34375 L 1.421875 -7.578125 L 0.359375 -7.578125 L 0.359375 -7.859375 L 1.421875 -7.859375 L 2.546875 -9.640625 L 2.8125 -9.640625 L 2.8125 -7.859375 L 4.9375 -7.859375 L 4.9375 -7.578125 L 2.8125 -7.578125 L 2.8125 -1.390625 C 2.8125 -0.984375 2.910156 -0.671875 3.109375 -0.453125 C 3.316406 -0.234375 3.59375 -0.125 3.9375 -0.125 C 4.425781 -0.125 4.851562 -0.289062 5.21875 -0.625 C 5.59375 -0.957031 5.78125 -1.476562 5.78125 -2.1875 L 6.0625 -2.1875 C 6.0625 -1.644531 5.960938 -1.203125 5.765625 -0.859375 C 5.578125 -0.515625 5.316406 -0.257812 4.984375 -0.09375 C 4.660156 0.0703125 4.3125 0.15625 3.9375 0.15625 Z M 3.640625 0.15625 "/></g></g></g><g fill="#ffffff" fill-opacity="1"><g transform="translate(178.271158, 12.765514)"><g><path d="M 0.578125 0 L 0.578125 -0.28125 L 1.671875 -0.28125 L 1.671875 -7.578125 L 0.578125 -7.578125 L 0.578125 -7.859375 L 3.03125 -7.859375 L 3.03125 -0.28125 L 4.125 -0.28125 L 4.125 0 Z M 1.390625 -10.484375 C 1.390625 -10.753906 1.484375 -10.984375 1.671875 -11.171875 C 1.859375 -11.359375 2.082031 -11.453125 2.34375 -11.453125 C 2.613281 -11.453125 2.835938 -11.359375 3.015625 -11.171875 C 3.203125 -10.984375 3.296875 -10.753906 3.296875 -10.484375 C 3.296875 -10.222656 3.203125 -10 3.015625 -9.8125 C 2.835938 -9.632812 2.613281 -9.546875 2.34375 -9.546875 C 2.082031 -9.546875 1.859375 -9.632812 1.671875 -9.8125 C 1.484375 -10 1.390625 -10.222656 1.390625 -10.484375 Z M 1.390625 -10.484375 "/></g></g></g><g fill="#ffffff" fill-opacity="1"><g transform="translate(189.196878, 12.765514)"><g><path d="M 4.40625 0.15625 C 3.25 0.15625 2.347656 -0.195312 1.703125 -0.90625 C 1.066406 -1.613281 0.75 -2.613281 0.75 -3.90625 C 0.75 -4.726562 0.878906 -5.445312 1.140625 -6.0625 C 1.410156 -6.675781 1.816406 -7.15625 2.359375 -7.5 C 2.898438 -7.84375 3.570312 -8.015625 4.375 -8.015625 L 4.546875 -8.015625 C 5.535156 -8.015625 6.296875 -7.769531 6.828125 -7.28125 C 7.359375 -6.800781 7.625 -6.171875 7.625 -5.390625 C 7.625 -5.203125 7.566406 -5.039062 7.453125 -4.90625 C 7.335938 -4.78125 7.164062 -4.71875 6.9375 -4.71875 C 6.675781 -4.71875 6.484375 -4.785156 6.359375 -4.921875 C 6.234375 -5.066406 6.171875 -5.257812 6.171875 -5.5 L 6.171875 -5.90625 C 6.171875 -6.394531 6.125 -6.769531 6.03125 -7.03125 C 5.9375 -7.300781 5.757812 -7.484375 5.5 -7.578125 C 5.25 -7.679688 4.875 -7.734375 4.375 -7.734375 C 3.675781 -7.734375 3.125 -7.460938 2.71875 -6.921875 C 2.320312 -6.390625 2.125 -5.691406 2.125 -4.828125 L 2.125 -3.234375 C 2.125 -2.316406 2.351562 -1.566406 2.8125 -0.984375 C 3.269531 -0.410156 3.894531 -0.125 4.6875 -0.125 C 5.3125 -0.125 5.828125 -0.253906 6.234375 -0.515625 C 6.640625 -0.773438 6.988281 -1.140625 7.28125 -1.609375 L 7.515625 -1.453125 C 7.191406 -0.941406 6.800781 -0.546875 6.34375 -0.265625 C 5.894531 0.015625 5.34375 0.15625 4.6875 0.15625 Z M 4.40625 0.15625 "/></g></g></g><g fill="#ffffff" fill-opacity="1"><g transform="translate(203.93649, 12.765514)"><g/></g></g><g fill="#ffffff" fill-opacity="1"><g transform="translate(214.108843, 12.765514)"><g><path d="M 9 -9.625 C 9 -10.351562 8.617188 -10.71875 7.859375 -10.71875 L 3.15625 -10.71875 L 3.15625 -5.65625 L 6.90625 -5.65625 C 7.289062 -5.65625 7.484375 -5.847656 7.484375 -6.234375 L 7.484375 -7.03125 L 7.75 -7.03125 L 7.75 -3.984375 L 7.484375 -3.984375 L 7.484375 -4.78125 C 7.484375 -5.1875 7.289062 -5.390625 6.90625 -5.390625 L 3.15625 -5.390625 L 3.15625 -0.28125 L 7.859375 -0.28125 C 8.617188 -0.28125 9 -0.640625 9 -1.359375 L 9 -2.65625 L 9.265625 -2.65625 L 9.265625 0 L 0.578125 0 L 0.578125 -0.28125 L 1.671875 -0.28125 L 1.671875 -10.71875 L 0.578125 -10.71875 L 0.578125 -11 L 9.265625 -11 L 9.265625 -8.34375 L 9 -8.34375 Z M 9 -9.625 "/></g></g></g><g fill="#ffffff" fill-opacity="1"><g transform="translate(230.951599, 12.765514)"><g><path d="M 4.953125 -0.015625 L 4.953125 -0.296875 L 5.921875 -0.296875 L 3.703125 -3.671875 L 1.453125 -0.296875 L 2.671875 -0.296875 L 2.671875 -0.015625 L 0.0625 -0.015625 L 0.0625 -0.296875 L 1.125 -0.296875 L 3.53125 -3.921875 L 1.109375 -7.59375 L 0.0625 -7.59375 L 0.0625 -7.875 L 3.84375 -7.875 L 3.84375 -7.59375 L 2.734375 -7.59375 L 4.96875 -4.203125 L 7.21875 -7.59375 L 6.125 -7.59375 L 6.125 -7.875 L 8.578125 -7.875 L 8.578125 -7.59375 L 7.53125 -7.59375 L 5.125 -3.96875 L 7.515625 -0.296875 L 8.578125 -0.296875 L 8.578125 -0.015625 Z M 4.953125 -0.015625 "/></g></g></g><g fill="#ffffff" fill-opacity="1"><g transform="translate(245.942325, 12.765514)"><g><path d="M 5.515625 0.15625 C 4.910156 0.15625 4.378906 -0.0195312 3.921875 -0.375 C 3.472656 -0.726562 3.132812 -1.25 2.90625 -1.9375 L 2.90625 2.875 L 3.984375 2.875 L 3.984375 3.140625 L 0.453125 3.140625 L 0.453125 2.875 L 1.53125 2.875 L 1.53125 -7.578125 L 0.453125 -7.578125 L 0.453125 -7.859375 L 2.90625 -7.859375 L 2.90625 -5.90625 C 3.132812 -6.59375 3.472656 -7.113281 3.921875 -7.46875 C 4.378906 -7.832031 4.910156 -8.015625 5.515625 -8.015625 L 5.828125 -8.015625 C 6.785156 -8.015625 7.515625 -7.648438 8.015625 -6.921875 C 8.515625 -6.191406 8.765625 -5.191406 8.765625 -3.921875 C 8.765625 -2.660156 8.515625 -1.664062 8.015625 -0.9375 C 7.515625 -0.207031 6.78125 0.15625 5.8125 0.15625 Z M 2.90625 -3.40625 C 2.976562 -2.300781 3.253906 -1.476562 3.734375 -0.9375 C 4.222656 -0.394531 4.816406 -0.125 5.515625 -0.125 C 6.097656 -0.125 6.554688 -0.34375 6.890625 -0.78125 C 7.222656 -1.226562 7.390625 -1.84375 7.390625 -2.625 L 7.390625 -5.234375 C 7.390625 -6.015625 7.222656 -6.625 6.890625 -7.0625 C 6.566406 -7.507812 6.113281 -7.734375 5.53125 -7.734375 C 4.820312 -7.734375 4.222656 -7.460938 3.734375 -6.921875 C 3.253906 -6.390625 2.976562 -5.5625 2.90625 -4.4375 Z M 2.90625 -3.40625 "/></g></g></g><g fill="#ffffff" fill-opacity="1"><g transform="translate(261.811987, 12.765514)"><g><path d="M 4.46875 0.15625 C 3.28125 0.15625 2.363281 -0.195312 1.71875 -0.90625 C 1.070312 -1.613281 0.75 -2.613281 0.75 -3.90625 C 0.75 -5.195312 1.050781 -6.203125 1.65625 -6.921875 C 2.269531 -7.648438 3.160156 -8.015625 4.328125 -8.015625 L 4.421875 -8.015625 C 5.492188 -8.015625 6.316406 -7.757812 6.890625 -7.25 C 7.460938 -6.75 7.75 -6.117188 7.75 -5.359375 C 7.75 -5.078125 7.664062 -4.851562 7.5 -4.6875 C 7.332031 -4.519531 7.097656 -4.4375 6.796875 -4.4375 L 2.125 -4.4375 L 2.125 -3.296875 C 2.125 -2.347656 2.363281 -1.582031 2.84375 -1 C 3.320312 -0.414062 3.96875 -0.125 4.78125 -0.125 C 5.394531 -0.125 5.90625 -0.242188 6.3125 -0.484375 C 6.71875 -0.722656 7.082031 -1.085938 7.40625 -1.578125 L 7.640625 -1.4375 C 7.304688 -0.925781 6.910156 -0.53125 6.453125 -0.25 C 5.992188 0.0195312 5.441406 0.15625 4.796875 0.15625 Z M 2.125 -4.734375 L 6.109375 -4.734375 C 6.285156 -4.734375 6.375 -4.828125 6.375 -5.015625 L 6.375 -5.5625 C 6.382812 -6.175781 6.21875 -6.691406 5.875 -7.109375 C 5.53125 -7.523438 5.015625 -7.734375 4.328125 -7.734375 C 3.585938 -7.734375 3.035156 -7.460938 2.671875 -6.921875 C 2.304688 -6.390625 2.125 -5.691406 2.125 -4.828125 Z M 2.125 -4.734375 "/></g></g></g><g fill="#ffffff" fill-opacity="1"><g transform="translate(276.661497, 12.765514)"><g><path d="M 0.578125 0 L 0.578125 -0.28125 L 1.671875 -0.28125 L 1.671875 -7.578125 L 0.578125 -7.578125 L 0.578125 -7.859375 L 3.046875 -7.859375 L 3.046875 -6.453125 C 3.222656 -6.941406 3.472656 -7.320312 3.796875 -7.59375 C 4.117188 -7.875 4.507812 -8.015625 4.96875 -8.015625 L 5.375 -8.015625 C 6.0625 -8.015625 6.597656 -7.820312 6.984375 -7.4375 C 7.367188 -7.050781 7.5625 -6.539062 7.5625 -5.90625 C 7.5625 -5.457031 7.335938 -5.234375 6.890625 -5.234375 C 6.429688 -5.234375 6.203125 -5.457031 6.203125 -5.90625 L 6.203125 -6.390625 C 6.203125 -6.910156 6.117188 -7.265625 5.953125 -7.453125 C 5.785156 -7.640625 5.457031 -7.734375 4.96875 -7.734375 C 4.414062 -7.734375 3.96875 -7.488281 3.625 -7 C 3.289062 -6.519531 3.097656 -5.835938 3.046875 -4.953125 L 3.046875 -0.28125 L 4.125 -0.28125 L 4.125 0 Z M 0.578125 0 "/></g></g></g><g fill="#ffffff" fill-opacity="1"><g transform="translate(290.851776, 12.765514)"><g><path d="M 0.578125 0 L 0.578125 -0.28125 L 1.671875 -0.28125 L 1.671875 -7.578125 L 0.578125 -7.578125 L 0.578125 -7.859375 L 3.03125 -7.859375 L 3.03125 -0.28125 L 4.125 -0.28125 L 4.125 0 Z M 1.390625 -10.484375 C 1.390625 -10.753906 1.484375 -10.984375 1.671875 -11.171875 C 1.859375 -11.359375 2.082031 -11.453125 2.34375 -11.453125 C 2.613281 -11.453125 2.835938 -11.359375 3.015625 -11.171875 C 3.203125 -10.984375 3.296875 -10.753906 3.296875 -10.484375 C 3.296875 -10.222656 3.203125 -10 3.015625 -9.8125 C 2.835938 -9.632812 2.613281 -9.546875 2.34375 -9.546875 C 2.082031 -9.546875 1.859375 -9.632812 1.671875 -9.8125 C 1.484375 -10 1.390625 -10.222656 1.390625 -10.484375 Z M 1.390625 -10.484375 "/></g></g></g><g fill="#ffffff" fill-opacity="1"><g transform="translate(301.777496, 12.765514)"><g><path d="M 4.46875 0.15625 C 3.28125 0.15625 2.363281 -0.195312 1.71875 -0.90625 C 1.070312 -1.613281 0.75 -2.613281 0.75 -3.90625 C 0.75 -5.195312 1.050781 -6.203125 1.65625 -6.921875 C 2.269531 -7.648438 3.160156 -8.015625 4.328125 -8.015625 L 4.421875 -8.015625 C 5.492188 -8.015625 6.316406 -7.757812 6.890625 -7.25 C 7.460938 -6.75 7.75 -6.117188 7.75 -5.359375 C 7.75 -5.078125 7.664062 -4.851562 7.5 -4.6875 C 7.332031 -4.519531 7.097656 -4.4375 6.796875 -4.4375 L 2.125 -4.4375 L 2.125 -3.296875 C 2.125 -2.347656 2.363281 -1.582031 2.84375 -1 C 3.320312 -0.414062 3.96875 -0.125 4.78125 -0.125 C 5.394531 -0.125 5.90625 -0.242188 6.3125 -0.484375 C 6.71875 -0.722656 7.082031 -1.085938 7.40625 -1.578125 L 7.640625 -1.4375 C 7.304688 -0.925781 6.910156 -0.53125 6.453125 -0.25 C 5.992188 0.0195312 5.441406 0.15625 4.796875 0.15625 Z M 2.125 -4.734375 L 6.109375 -4.734375 C 6.285156 -4.734375 6.375 -4.828125 6.375 -5.015625 L 6.375 -5.5625 C 6.382812 -6.175781 6.21875 -6.691406 5.875 -7.109375 C 5.53125 -7.523438 5.015625 -7.734375 4.328125 -7.734375 C 3.585938 -7.734375 3.035156 -7.460938 2.671875 -6.921875 C 2.304688 -6.390625 2.125 -5.691406 2.125 -4.828125 Z M 2.125 -4.734375 "/></g></g></g><g fill="#ffffff" fill-opacity="1"><g transform="translate(316.626983, 12.765514)"><g><path d="M 7.046875 -5.71875 C 7.046875 -6.351562 6.890625 -6.847656 6.578125 -7.203125 C 6.273438 -7.554688 5.867188 -7.734375 5.359375 -7.734375 C 4.710938 -7.734375 4.175781 -7.519531 3.75 -7.09375 C 3.332031 -6.664062 3.09375 -6.019531 3.03125 -5.15625 L 3.03125 -0.28125 L 4.125 -0.28125 L 4.125 0 L 0.578125 0 L 0.578125 -0.28125 L 1.671875 -0.28125 L 1.671875 -7.578125 L 0.578125 -7.578125 L 0.578125 -7.859375 L 3.03125 -7.859375 L 3.03125 -6.421875 C 3.238281 -6.941406 3.539062 -7.335938 3.9375 -7.609375 C 4.332031 -7.878906 4.804688 -8.015625 5.359375 -8.015625 L 5.546875 -8.015625 C 6.410156 -8.015625 7.109375 -7.734375 7.640625 -7.171875 C 8.171875 -6.617188 8.4375 -5.800781 8.4375 -4.71875 L 8.4375 -0.28125 L 9.515625 -0.28125 L 9.515625 0 L 7.046875 0 Z M 7.046875 -5.71875 "/></g></g></g><g fill="#ffffff" fill-opacity="1"><g transform="translate(332.936101, 12.765514)"><g><path d="M 4.40625 0.15625 C 3.25 0.15625 2.347656 -0.195312 1.703125 -0.90625 C 1.066406 -1.613281 0.75 -2.613281 0.75 -3.90625 C 0.75 -4.726562 0.878906 -5.445312 1.140625 -6.0625 C 1.410156 -6.675781 1.816406 -7.15625 2.359375 -7.5 C 2.898438 -7.84375 3.570312 -8.015625 4.375 -8.015625 L 4.546875 -8.015625 C 5.535156 -8.015625 6.296875 -7.769531 6.828125 -7.28125 C 7.359375 -6.800781 7.625 -6.171875 7.625 -5.390625 C 7.625 -5.203125 7.566406 -5.039062 7.453125 -4.90625 C 7.335938 -4.78125 7.164062 -4.71875 6.9375 -4.71875 C 6.675781 -4.71875 6.484375 -4.785156 6.359375 -4.921875 C 6.234375 -5.066406 6.171875 -5.257812 6.171875 -5.5 L 6.171875 -5.90625 C 6.171875 -6.394531 6.125 -6.769531 6.03125 -7.03125 C 5.9375 -7.300781 5.757812 -7.484375 5.5 -7.578125 C 5.25 -7.679688 4.875 -7.734375 4.375 -7.734375 C 3.675781 -7.734375 3.125 -7.460938 2.71875 -6.921875 C 2.320312 -6.390625 2.125 -5.691406 2.125 -4.828125 L 2.125 -3.234375 C 2.125 -2.316406 2.351562 -1.566406 2.8125 -0.984375 C 3.269531 -0.410156 3.894531 -0.125 4.6875 -0.125 C 5.3125 -0.125 5.828125 -0.253906 6.234375 -0.515625 C 6.640625 -0.773438 6.988281 -1.140625 7.28125 -1.609375 L 7.515625 -1.453125 C 7.191406 -0.941406 6.800781 -0.546875 6.34375 -0.265625 C 5.894531 0.015625 5.34375 0.15625 4.6875 0.15625 Z M 4.40625 0.15625 "/></g></g></g><g fill="#ffffff" fill-opacity="1"><g transform="translate(347.675713, 12.765514)"><g><path d="M 4.46875 0.15625 C 3.28125 0.15625 2.363281 -0.195312 1.71875 -0.90625 C 1.070312 -1.613281 0.75 -2.613281 0.75 -3.90625 C 0.75 -5.195312 1.050781 -6.203125 1.65625 -6.921875 C 2.269531 -7.648438 3.160156 -8.015625 4.328125 -8.015625 L 4.421875 -8.015625 C 5.492188 -8.015625 6.316406 -7.757812 6.890625 -7.25 C 7.460938 -6.75 7.75 -6.117188 7.75 -5.359375 C 7.75 -5.078125 7.664062 -4.851562 7.5 -4.6875 C 7.332031 -4.519531 7.097656 -4.4375 6.796875 -4.4375 L 2.125 -4.4375 L 2.125 -3.296875 C 2.125 -2.347656 2.363281 -1.582031 2.84375 -1 C 3.320312 -0.414062 3.96875 -0.125 4.78125 -0.125 C 5.394531 -0.125 5.90625 -0.242188 6.3125 -0.484375 C 6.71875 -0.722656 7.082031 -1.085938 7.40625 -1.578125 L 7.640625 -1.4375 C 7.304688 -0.925781 6.910156 -0.53125 6.453125 -0.25 C 5.992188 0.0195312 5.441406 0.15625 4.796875 0.15625 Z M 2.125 -4.734375 L 6.109375 -4.734375 C 6.285156 -4.734375 6.375 -4.828125 6.375 -5.015625 L 6.375 -5.5625 C 6.382812 -6.175781 6.21875 -6.691406 5.875 -7.109375 C 5.53125 -7.523438 5.015625 -7.734375 4.328125 -7.734375 C 3.585938 -7.734375 3.035156 -7.460938 2.671875 -6.921875 C 2.304688 -6.390625 2.125 -5.691406 2.125 -4.828125 Z M 2.125 -4.734375 "/></g></g></g><g fill="#ffffff" fill-opacity="1"><g transform="translate(362.5252, 12.765514)"><g><path d="M 3.828125 0.15625 C 2.816406 0.15625 2.039062 -0.03125 1.5 -0.40625 C 0.957031 -0.789062 0.6875 -1.363281 0.6875 -2.125 C 0.6875 -2.332031 0.742188 -2.5 0.859375 -2.625 C 0.972656 -2.75 1.128906 -2.8125 1.328125 -2.8125 C 1.554688 -2.8125 1.734375 -2.742188 1.859375 -2.609375 C 1.992188 -2.484375 2.0625 -2.289062 2.0625 -2.03125 L 2.0625 -1.703125 C 2.0625 -1.265625 2.101562 -0.929688 2.1875 -0.703125 C 2.28125 -0.484375 2.453125 -0.332031 2.703125 -0.25 C 2.960938 -0.164062 3.335938 -0.125 3.828125 -0.125 C 4.441406 -0.125 4.894531 -0.285156 5.1875 -0.609375 C 5.476562 -0.941406 5.625 -1.328125 5.625 -1.765625 C 5.625 -2.128906 5.507812 -2.4375 5.28125 -2.6875 C 5.050781 -2.9375 4.71875 -3.15625 4.28125 -3.34375 L 2.671875 -4.09375 C 2.035156 -4.375 1.597656 -4.671875 1.359375 -4.984375 C 1.117188 -5.296875 1 -5.679688 1 -6.140625 C 1 -6.640625 1.21875 -7.078125 1.65625 -7.453125 C 2.101562 -7.828125 2.785156 -8.015625 3.703125 -8.015625 L 3.984375 -8.015625 C 4.828125 -8.015625 5.488281 -7.84375 5.96875 -7.5 C 6.457031 -7.164062 6.703125 -6.71875 6.703125 -6.15625 C 6.703125 -5.78125 6.484375 -5.59375 6.046875 -5.59375 C 5.859375 -5.59375 5.707031 -5.640625 5.59375 -5.734375 C 5.476562 -5.835938 5.421875 -5.988281 5.421875 -6.1875 L 5.421875 -6.515625 C 5.421875 -6.835938 5.382812 -7.082031 5.3125 -7.25 C 5.25 -7.425781 5.113281 -7.550781 4.90625 -7.625 C 4.707031 -7.695312 4.40625 -7.734375 4 -7.734375 C 3.457031 -7.734375 3.050781 -7.601562 2.78125 -7.34375 C 2.507812 -7.09375 2.375 -6.800781 2.375 -6.46875 C 2.375 -6.113281 2.472656 -5.820312 2.671875 -5.59375 C 2.878906 -5.375 3.222656 -5.15625 3.703125 -4.9375 L 5.359375 -4.15625 C 5.878906 -3.925781 6.28125 -3.648438 6.5625 -3.328125 C 6.84375 -3.003906 6.984375 -2.601562 6.984375 -2.125 C 6.984375 -1.707031 6.882812 -1.328125 6.6875 -0.984375 C 6.488281 -0.640625 6.175781 -0.363281 5.75 -0.15625 C 5.332031 0.0507812 4.789062 0.15625 4.125 0.15625 Z M 3.828125 0.15625 "/></g></g></g></g></g></g></g></g></g></g></g></svg>